replay
version=1
nRows=18
nColumns=40
inDegrees=no
endheader
time	/jointset/ground_pelvis/pelvis_tilt/value	/jointset/ground_pelvis/pelvis_list/value	/jointset/ground_pelvis/pelvis_rotation/value	/jointset/ground_pelvis/pelvis_tx/value	/jointset/ground_pelvis/pelvis_ty/value	/jointset/ground_pelvis/pelvis_tz/value	/jointset/hip_r/hip_flexion_r/value	/jointset/hip_r/hip_adduction_r/value	/jointset/hip_r/hip_rotation_r/value	/jointset/walker_knee_r/knee_angle_r/value	/jointset/patellofemoral_r/knee_angle_r_beta/value	/jointset/ankle_r/ankle_angle_r/value	/jointset/subtalar_r/subtalar_angle_r/value	/jointset/mtp_r/mtp_angle_r/value	/jointset/hip_l/hip_flexion_l/value	/jointset/hip_l/hip_adduction_l/value	/jointset/hip_l/hip_rotation_l/value	/jointset/walker_knee_l/knee_angle_l/value	/jointset/patellofemoral_l/knee_angle_l_beta/value	/jointset/ankle_l/ankle_angle_l/value	/jointset/subtalar_l/subtalar_angle_l/value	/jointset/mtp_l/mtp_angle_l/value	/jointset/back/lumbar_extension/value	/jointset/back/lumbar_bending/value	/jointset/back/lumbar_rotation/value	/jointset/acromial_r/arm_flex_r/value	/jointset/acromial_r/arm_add_r/value	/jointset/acromial_r/arm_rot_r/value	/jointset/elbow_r/elbow_flex_r/value	/jointset/radioulnar_r/pro_sup_r/value	/jointset/radius_hand_r/wrist_flex_r/value	/jointset/radius_hand_r/wrist_dev_r/value	/jointset/acromial_l/arm_flex_l/value	/jointset/acromial_l/arm_add_l/value	/jointset/acromial_l/arm_rot_l/value	/jointset/elbow_l/elbow_flex_l/value	/jointset/radioulnar_l/pro_sup_l/value	/jointset/radius_hand_l/wrist_flex_l/value	/jointset/radius_hand_l/wrist_dev_l/value
0.45	-0.1829643991	-0.1445191207	-0.47275441	1.182093581	1.064816241	-0.1106739278	0.2259239871	0.1498938739	0.2685509258	0.1625903009	0.1625903009	-0.2178842998	-0.218609484	-6.984863552e-05	0.1540164395	-0.1537845105	-0.3430667674	0.07732883303	0.07732883303	-0.1173752825	-0.1825485879	-4.824663977e-05	0.4713564608	1.176127991	-1.22254657	-0.9752787648	-1.062086407	-1.462239532	0.6258473983	-1.164624044	0.7124152587	0.1863259908	-0.07323199303	0.7967446639	-1.128834782	1.763995367	0.1761836817	-0.0007530138009	-0.000819255706
0.452777778	-0.1833549916	-0.1450150727	-0.4738853293	1.182207092	1.064940995	-0.1109195764	0.2253206381	0.1496507317	0.2674600482	0.1628510897	0.1628510897	-0.2181541905	-0.2191469548	-8.790375606e-05	0.1544535408	-0.1541687879	-0.3432931168	0.07642723326	0.07642723326	-0.1175585702	-0.1826456639	-6.801647188e-05	0.479278419	1.179614669	-1.236178597	-0.9757058827	-1.054673746	-1.487230972	0.6439517326	-1.272234733	0.6724732911	0.2593565902	-0.07341841072	0.7973095603	-1.129763403	1.763474976	0.1763242296	-0.001033331714	-0.0009060280023
0.455555556	-0.1827441576	-0.1454749111	-0.4758911906	1.182376382	1.065137116	-0.1109661374	0.2235549389	0.1493012191	0.267846875	0.1632501029	0.1632501029	-0.2180337318	-0.219249342	-0.0001193147727	0.1530801579	-0.1542990739	-0.3446523356	0.07526441824	0.07526441824	-0.1171074514	-0.182717328	-7.13624829e-05	0.4841856313	1.182852283	-1.247554135	-0.9751690148	-1.047664249	-1.516321439	0.6609785089	-1.43937476	0.6044662096	0.3665438218	-0.0733175709	0.797766242	-1.130751681	1.762784144	0.1765886055	-0.001300481313	-0.000981685575
0.458333333	-0.1813643922	-0.1458105869	-0.478721633	1.18258807	1.065383821	-0.1108277338	0.2209590078	0.1488295773	0.2694575777	0.1638132607	0.1638132607	-0.2177375982	-0.2190679612	-0.0001579484214	0.1503129858	-0.1541934259	-0.3468424622	0.07403807638	0.07403807638	-0.1162231544	-0.1827502515	-6.580505004e-05	0.4864579981	1.18584704	-1.256828503	-0.9738008667	-1.041296106	-1.549140756	0.6749062577	-1.658005406	0.4905274305	0.489780065	-0.07298137668	0.7981490052	-1.131783992	1.762074874	0.1769250303	-0.0015372006	-0.001036161871
0.461111111	-0.1794371143	-0.1459327381	-0.4823362836	1.182827669	1.065661069	-0.1105182276	0.2178570691	0.1482147429	0.2720488459	0.1645686855	0.1645686855	-0.2174711954	-0.2187510837	-0.0001942864963	0.14655508	-0.1538607206	-0.3495776232	0.07293604109	0.07293604109	-0.1151166935	-0.1827267018	-6.735873675e-05	0.4864403095	1.188598522	-1.264126064	-0.9718371174	-1.03577709	-1.584578603	0.6835447554	-1.917000202	0.312137938	0.5999079346	-0.0724614414	0.7984902378	-1.132845721	1.761497913	0.1772832971	-0.00172815481	-0.001058983311
0.463888889	-0.177252145	-0.1458419864	-0.4865326457	1.183076063	1.065948684	-0.1100851742	0.2145952712	0.1474838893	0.2751901805	0.1654772639	0.1654772639	-0.217332606	-0.2184167369	-0.000225087717	0.1423184222	-0.1533722281	-0.3525288329	0.07205970838	0.07205970838	-0.1140106094	-0.18266758	-8.690078585e-05	0.4849373427	1.19117551	-1.27004147	-0.9696280509	-1.031075723	-1.621127095	0.6858688938	-2.204399738	0.06799978147	0.6585050383	-0.07184363834	0.7988214357	-1.133911808	1.761114128	0.1776283792	-0.001875283514	-0.001047805234
0.466666667	-0.1751923182	-0.1456515456	-0.4909080566	1.183308616	1.066226526	-0.1096191363	0.211552005	0.1467331077	0.2782189575	0.1664162187	0.1664162187	-0.2172830056	-0.2181440746	-0.000256330892	0.1382537745	-0.1528871306	-0.355324876	0.07139350384	0.07139350384	-0.1131357683	-0.1826447412	-0.0001242525958	0.4833357447	1.193745913	-1.275760186	-0.967405137	-1.026932847	-1.658120742	0.6821264983	-2.522084905	-0.2096308977	0.6311919462	-0.07125847557	0.7991763717	-1.134943284	1.760870246	0.177947936	-0.001998569806	-0.001008288146
0.469444444	-0.173631727	-0.1454702524	-0.4950800527	1.18349977	1.066476253	-0.1092108741	0.2090980697	0.1460654949	0.2804945916	0.1672678289	0.1672678289	-0.217269593	-0.2180083151	-0.0002912404384	0.134990266	-0.1525694517	-0.3576364271	0.07089595558	0.07089595558	-0.1127221484	-0.1827275826	-0.0001810733463	0.482963818	1.196489422	-1.282415193	-0.9650980395	-1.023164771	-1.695188153	0.6717897075	-2.894495421	-0.4638856543	0.4930780896	-0.07083645761	0.7995901826	-1.135904084	1.760709597	0.1782377125	-0.002111808694	-0.0009421768897
0.472222222	-0.17285511	-0.145386112	-0.4987450703	1.183625611	1.066685693	-0.1089364389	0.2075203205	0.1455661367	0.281516841	0.1679438418	0.1679438418	-0.217244371	-0.2180800438	-0.0003261018915	0.1330134853	-0.1525500692	-0.3592383479	0.0704993513	0.0704993513	-0.1129528454	-0.1829603858	-0.0002640552283	0.484836453	1.199554	-1.290887549	-0.9621462451	-1.019581193	-1.729824719	0.6540860945	-3.35025372	-0.6314247107	0.2337548675	-0.07068508124	0.8000876197	-1.136780759	1.760575802	0.1785021495	-0.002219182416	-0.0008503315641
0.475	-0.1726700187	-0.1454219133	-0.5019888932	1.183685597	1.06687148	-0.1087819167	0.2066122954	0.1452212892	0.2815782414	0.1684899495	0.1684899495	-0.2172593129	-0.2183806382	-0.0003505281918	0.1320104373	-0.1527755825	-0.3603961467	0.07005144704	0.07005144704	-0.1136362928	-0.1832438322	-0.0003845877704	0.4884374631	1.202903135	-1.300839729	-0.9573768274	-1.015824025	-1.756311618	0.6319886569	-3.891925498	-0.6567594744	-0.112778664	-0.07077626685	0.8006478688	-1.137659415	1.760403495	0.1787727886	-0.002327889996	-0.0007471844679
0.477777778	-0.1727093111	-0.1455844552	-0.5050621653	1.183692474	1.0670601	-0.1086955837	0.205974782	0.1449884535	0.2813046323	0.1690026805	0.1690026805	-0.2174239276	-0.2188987465	-0.0003602015849	0.1313496649	-0.1531281708	-0.3615725105	0.06937056807	0.06937056807	-0.114401965	-0.1834236355	-0.0005483711486	0.4926960009	1.206444087	-1.311488211	-0.9497221651	-1.01156954	-1.772529951	0.6147429602	-4.470192859	-0.4915162556	-0.4362948802	-0.07102865807	0.8012379601	-1.138655886	1.760126806	0.1790780361	-0.002474279405	-0.0006639659909
0.480555556	-0.1726921114	-0.1458811053	-0.5082227289	1.183665144	1.067271825	-0.1086271017	0.2052834051	0.1448537701	0.2813055767	0.169569686	0.169569686	-0.2178680613	-0.2196021776	-0.0003651253876	0.1304815957	-0.15352141	-0.3632159157	0.06828118373	0.06828118373	-0.1148601956	-0.1833592439	-0.000748383273	0.4966999265	1.210134411	-1.322095574	-0.9400181486	-1.007096062	-1.784239921	0.6092920919	-5.02560566	-0.1455868916	-0.5925137858	-0.07137857047	0.8018618756	-1.139844635	1.759688069	0.1794603541	-0.00269885677	-0.0006153762126
0.483333333	-0.172437645	-0.1463112783	-0.5116594658	1.18361824	1.067519441	-0.1085391454	0.2043244715	0.1448095103	0.2819872493	0.1702466363	0.1702466363	-0.2186238091	-0.2204258908	-0.0003739292048	0.1290529116	-0.1539021577	-0.3655903193	0.06671975819	0.06671975819	-0.1148013207	-0.1830015253	-0.0009780163124	0.4997925849	1.213950325	-1.332087004	-0.9296453022	-1.002683381	-1.796693806	0.6167264214	-5.588305555	0.234199521	-0.5128683501	-0.07178831357	0.8025271037	-1.141252674	1.759099357	0.179934254	-0.003023379187	-0.0006012643077
0.486111111	-0.171964318	-0.1468534576	-0.5154408902	1.183555527	1.0678009	-0.1084220948	0.2031121868	0.1448615517	0.2833367261	0.1710290402	0.1710290402	-0.219497146	-0.2212234571	-0.0003892856298	0.1271087784	-0.154287625	-0.3685889477	0.06485500819	0.06485500819	-0.1144201675	-0.1825018523	-0.001235651895	0.5018564575	1.217910253	-1.34125591	-0.9199709475	-0.9986040835	-1.81510823	0.6375021316	-6.219366239	0.4581856067	-0.2245362261	-0.07227309385	0.8032361769	-1.142818908	1.758535545	0.1804264781	-0.003460004972	-0.00061247411
0.488888889	-0.1713579051	-0.1474635005	-0.5196297175	1.183481651	1.068109273	-0.1082681332	0.2017370083	0.1450209268	0.2852876284	0.1719058409	0.1719058409	-0.2202657125	-0.2218344368	-0.0004147121353	0.1247916007	-0.1547081465	-0.3720590105	0.0628870443	0.0628870443	-0.1139644192	-0.182039159	-0.001519404518	0.5028187864	1.222048303	-1.349325869	-0.9131588061	-0.9955716914	-1.848877064	0.6636967598	-6.876272616	0.4511744836	0.1327495512	-0.07286592579	0.8040232072	-1.144443548	1.758193439	0.180903496	-0.003966046338	-0.0005924836239
0.491666667	-0.1706382253	-0.148097739	-0.5242618487	1.183395727	1.068442762	-0.1080696092	0.2002341748	0.1452691311	0.2877687848	0.1728689648	0.1728689648	-0.2207074339	-0.2221313669	-0.0004436080037	0.1221897889	-0.1551640418	-0.3758435599	0.06101014453	0.06101014453	-0.1136886809	-0.181768212	-0.001840487553	0.5024408536	1.226344305	-1.355949624	-0.910006417	-0.9941572181	-1.898222733	0.6801377097	-7.488353469	0.2435401196	0.3945938524	-0.07357813841	0.8049008583	-1.146078621	1.758248737	0.1813478529	-0.004462910064	-0.0004794501969
0.494444444	-0.1698053008	-0.1487294852	-0.5293198519	1.183290759	1.068802412	-0.1078331707	0.1986350545	0.1455706085	0.2906734827	0.1739127842	0.1739127842	-0.2207890231	-0.2221312907	-0.0004671082518	0.1193509979	-0.1556248804	-0.3798498293	0.0592597173	0.0592597173	-0.1136621105	-0.1816267338	-0.002217466477	0.5006379449	1.230765457	-1.361036749	-0.9099316183	-0.9940577442	-1.955679477	0.6806614917	-8.056280411	-0.08272460583	0.4681155401	-0.07439165216	0.8058470423	-1.147711998	1.758694994	0.1817555334	-0.004939773847	-0.0002742786448
0.497222222	-0.1689128762	-0.1493265198	-0.5347769765	1.183159699	1.069186492	-0.1075747189	0.1970382569	0.1458960433	0.2938804661	0.1750360117	0.1750360117	-0.2206317309	-0.2219449432	-0.0004811693658	0.1163529867	-0.1560536407	-0.3840537608	0.05754210185	0.05754210185	-0.1138016152	-0.1813895498	-0.002668962073	0.4974967323	1.235307996	-1.364625597	-0.9122294	-0.9949261346	-2.017378885	0.6642374708	-8.653973102	-0.3907324043	0.3243942134	-0.07528378333	0.8068512604	-1.149312541	1.759393683	0.182165807	-0.005417858957	4.908830261e-06
